<svg xmlns="http://www.w3.org/2000/svg" xmlns:svg="http://www.w3.org/2000/svg" id="svg815" width="256" height="256" version="1.1" viewBox="0 0 256 256"><metadata id="metadata821"/><path style="fill:#f05033;fill-opacity:1;stroke-width:2.24708056" id="path8" d="m 127.74219,0 c -4.21881,0 -8.43843,1.6093415 -11.65821,4.828125 L 92.875,28.041016 122.31445,57.482422 c 6.84425,-2.310946 14.68947,-0.761046 20.14258,4.693359 5.48141,5.488392 7.0192,13.400136 4.65039,20.267578 l 28.37696,28.376951 c 6.86492,-2.36579 14.78398,-0.83727 20.26562,4.6543 7.66374,7.66179 7.66374,20.07642 0,27.74023 -7.66486,7.66631 -20.07893,7.66631 -27.74805,0 -5.76254,-5.76724 -7.18821,-14.23373 -4.26953,-21.33398 l -26.46289,-26.464844 -0.002,69.640624 c 1.8684,0.92496 3.63248,2.16064 5.18945,3.71094 7.66148,7.6609 7.66148,20.07236 0,27.74609 -7.66374,7.66066 -20.08459,7.66066 -27.74023,0 -7.66262,-7.67305 -7.66262,-20.08452 0,-27.74609 1.89369,-1.89039 4.08382,-3.32218 6.42187,-4.28125 V 94.199219 c -2.33912,-0.955028 -4.52734,-2.375687 -6.42383,-4.28125 -5.80409,-5.799832 -7.20125,-14.319608 -4.22461,-21.447266 L 81.466797,39.443359 4.8300781,116.08203 c -6.4393305,6.44252 -6.4393305,16.88229 0,23.32031 L 42.5,177.07227 V 162.70508 C 35.078345,157.16403 29.678851,149.02425 27.328125,140.07617 19.76286,115.647 40.902921,87.908596 66.359375,88.345703 76.747705,88.003924 87.132367,91.94485 94.875,98.837891 c 18.78493,15.372969 17.87151,47.496839 -0.888672,62.484379 l -2.566406,1.3457 0.222656,12.46503 -8.160156,8.24395 v 34.67578 l 33.119138,33.11915 c 6.43505,6.43757 16.87041,6.43757 23.31446,0 L 251.17188,139.92969 c 6.43732,-6.4407 6.43732,-16.88336 0,-23.32227 l 0.002,-0.01 L 139.39453,4.828125 C 136.1788,1.6093415 131.96099,0 127.74219,0 Z"/><path style="fill:#4d4d4d;fill-opacity:1;stroke:none;stroke-width:4.12109041;stroke-opacity:1" id="path831" d="M 67.333984 94.333984 A 35.333332 35.333332 0 0 0 32 129.66602 A 35.333332 35.333332 0 0 0 48.5 159.54688 L 48.5 234.5 L 54.5 240 L 67 240 L 79 228 L 79 216.5 L 73 210 L 79 203.5 L 73 197 L 79 191 L 73 185.5 L 85.5 173 L 85.5 159.92188 A 35.333332 35.333332 0 0 0 102.66602 129.66602 A 35.333332 35.333332 0 0 0 67.333984 94.333984 z M 66.777344 109 A 9 9 0 0 1 75.777344 118 A 9 9 0 0 1 66.777344 127 A 9 9 0 0 1 57.777344 118 A 9 9 0 0 1 66.777344 109 z M 54.5 168 L 60.5 173 L 60.5 234.5 L 54.5 228 L 54.5 168 z"/></svg>